# xmcd
#
# Track frame offsets:
#	150
#	14475
#	30977
#	42750
#	61108
#	80807
#	94527
#	111155
#	125234
#	141449
#	157156
#	172328
#	190391
#	207997
#	225659
#	237851
#	252644
#
# Disc length: 3562 seconds
#
# Revision: 1
# Processed by: cddbd v1.5.2PL0 Copyright (c) Steve Scherf et al.
# Submitted via: audiograbber 1.83.01
#
DISCID=f70de811
DTITLE=the blues band - brand loyalty (1981/82)
DYEAR=2012
DGENRE=Blues
TTITLE0=seemed like a good idea (at the time)
TTITLE1=rolling log
TTITLE2=i want to be loved
TTITLE3=might as well be me
TTITLE4=what do you want
TTITLE5=big fine girl
TTITLE6=sure feels good
TTITLE7=little baby
TTITLE8=grits ain't groceries
TTITLE9=funny money
TTITLE10=take me home
TTITLE11=oo-oo ee
TTITLE12=so bad (bonus)
TTITLE13=time after time (bonus)
TTITLE14=that's it, i quit (bonus)
TTITLE15=bad luck (bonus)
TTITLE16=boogie in the barnyard (bonus)
EXTD=
EXTT0=
EXTT1=
EXTT2=
EXTT3=
EXTT4=
EXTT5=
EXTT6=
EXTT7=
EXTT8=
EXTT9=
EXTT10=
EXTT11=
EXTT12=
EXTT13=
EXTT14=
EXTT15=
EXTT16=
PLAYORDER=
